<?xml version="1.0" encoding="utf-8"?>
<!-- Generator: Adobe Illustrator 24.3.0, SVG Export Plug-In . SVG Version: 6.00 Build 0)  -->
<svg version="1.1" id="Layer_1" xmlns="http://www.w3.org/2000/svg" xmlns:xlink="http://www.w3.org/1999/xlink" x="0px" y="0px"
	 viewBox="0 0 657.1 416.8" style="enable-background:new 0 0 657.1 416.8;" xml:space="preserve">
<style type="text/css">
	.st0{fill:#263238;}
	.st1{fill:#455A64;}
	.st2{fill:#DD3D31;}
	.st3{opacity:0.3;}
	.st4{opacity:0.3;enable-background:new    ;}
	.st5{fill:#FAFAFA;}
	.st6{fill:#FFBE9D;}
	.st7{fill:#EB996E;}
	.st8{opacity:0.4;}
	.st9{fill:#E3E6EC;}
	.st10{fill:#E0E0E0;}
	.st11{fill:#EFF3F9;}
	.st12{fill:#FFFFFF;}
	.st13{opacity:0.2;}
	.st14{clip-path:url(#SVGID_2_);}
	.st15{fill:#F5F5F5;}
</style>
<g id="freepik--Character--inject-92">
	<path class="st0" d="M227.5,70.6c2.8-1.2,5.7,1.3,7.2,3.9s2.7,5.7,5.5,6.9c2.1,0.9,4.6,0.4,6.9,0.5c7.1,0.3,12.7,6.4,15.9,12.9
		c2,4,3.5,8.6,2.1,12.8c-1.2,3.7-4.3,6.5-7.6,8.7c-6.6,4.4-14.4,6.6-22.3,6.3c-8-0.4-15.4-4-20.6-10.1c-3.9-4.7-5.9-10.7-6.8-16.7
		s-0.7-12.1-0.5-18.2"/>
	<path class="st1" d="M258.4,102.1c0,0,0-0.6-0.1-1.8c-0.2-1.6-0.6-3.2-1.3-4.6c-1-2.1-2.6-4-4.5-5.4c-2.4-1.7-5.1-2.9-8-3.4
		c-3-0.6-6.1-0.3-8.8-0.9c-2.4-0.5-4.6-1.7-6.5-3.3c-1.2-1.1-2.3-2.3-3.3-3.7c-0.3-0.5-0.6-0.8-0.7-1.1c-0.1-0.1-0.2-0.3-0.2-0.4
		c0.4,0.4,0.8,0.9,1.1,1.4c1,1.3,2.1,2.4,3.3,3.5c1.8,1.6,4,2.7,6.3,3.1c2.6,0.5,5.7,0.2,8.8,0.8c3,0.5,5.8,1.7,8.2,3.5
		c2,1.5,3.5,3.4,4.6,5.7c0.7,1.5,1.1,3.1,1.2,4.8c0,0.4,0,0.9,0,1.3C258.5,101.8,258.5,102,258.4,102.1z"/>
	<path class="st2" d="M286.2,89.1l-10.5,39.4l-21.4-23c-9.8-6.4-21.5-9.6-33.2-9l0,0l-33.3-1.6l-18.4,6.6c-4.4,1.6-8.7,3.7-12.7,6.1
		l-35.8,24.7c-7.6,5.5-13.8,9.6-15.2,18c-1.9,11,3.6,23.3,15.2,25.4l50.6,0.6l1.6,32l79.6-7.4l-2.1-48.3
		c16.2,12.5,23.9,17.4,36.1,15c4.1-0.8,9.9-5.1,11.8-11.4c6.8-22.6,7.9-58.1,7.9-58.1L286.2,89.1z M161.5,145.6l4.6-1.3l0.3,1.7
		L161.5,145.6z"/>
	<path class="st0" d="M120.3,175.8h0.4h1.2h4.8l17.8-0.1h58.9l-0.3,0.2c0-0.6,0.1-1.2,0.1-1.8c0.4-7.9,0.7-15.6,1.1-22.8l0.2,0.3
		c-17.9-1.7-33.3-4.2-44.2-5.6c-5.5-0.7-9.9-1.2-12.9-1.6l-3.4-0.4l-0.9-0.1l-0.3-0.1h0.3l0.9,0.1l3.4,0.3c3,0.3,7.4,0.7,12.9,1.4
		c11,1.3,26.3,3.8,44.2,5.4h0.2v0.2c-0.3,7.1-0.7,14.8-1,22.8c0,0.6-0.1,1.2-0.1,1.8v0.2h-0.2l-58.9-0.2l-17.9-0.1l-4.8-0.1h-1.2
		C120.6,175.8,120.4,175.8,120.3,175.8z"/>
	<path class="st0" d="M121.3,141.6c0.2-0.2,0.5-0.3,0.8-0.4c0.8-0.3,1.5-0.6,2.3-0.8c5.3-1.4,11-0.8,15.9,1.6
		c0.7,0.4,1.5,0.8,2.1,1.2c0.3,0.1,0.5,0.3,0.7,0.6c-0.1,0.1-1.1-0.6-3-1.4c-4.9-2.2-10.4-2.7-15.7-1.6
		C122.6,141.2,121.4,141.7,121.3,141.6z"/>
	<path class="st0" d="M132.3,132.4c0.8,0.3,1.5,0.7,2.2,1.2c1.7,1.1,3.3,2.2,4.8,3.5c1.7,1.5,3.3,3,4,4.4c0.3,0.6,0.4,1.2,0.4,1.8
		c0,0.2,0,0.5-0.1,0.7c0-0.8-0.2-1.6-0.6-2.3c-1.1-1.6-2.4-3-4-4.2c-1.8-1.5-3.4-2.7-4.7-3.6C133.6,133.4,133,132.9,132.3,132.4z"/>
	<path class="st0" d="M166.8,146.2c-0.4-1-0.7-2.1-0.9-3.1c-0.5-1.9-1.2-4.6-2-7.6s-1.7-5.6-2.4-7.5s-1.1-3-1.1-3.1
		c0.2,0.2,0.3,0.5,0.4,0.8c0.3,0.5,0.6,1.2,1,2.2c1,2.4,1.8,4.9,2.5,7.4c0.8,3,1.4,5.7,1.8,7.6C166.5,144,166.7,145.1,166.8,146.2z"
		/>
	<path class="st0" d="M251.7,175.1c-0.1,0-0.7-12-1.3-26.8s-0.9-26.9-0.8-26.9s0.7,12,1.3,26.8S251.8,175.1,251.7,175.1z"/>
	<g class="st3">
		<path d="M250.1,126.9c0.8,5.2,3,10,4.8,14.9s3,10.3,1.9,15.4l-6-4.8"/>
	</g>
	<path class="st0" d="M280.9,149.7c-0.2-0.2-0.3-0.5-0.5-0.8c-0.3-0.5-0.6-1.2-1-2.2c-2.1-4.9-3.3-10-3.7-15.3
		c-0.1-1-0.1-1.8-0.1-2.4c0-0.3,0-0.6,0.1-0.9c0.2,1.1,0.3,2.2,0.4,3.2c0.6,5.2,1.8,10.3,3.6,15.2
		C280.5,148.5,281,149.6,280.9,149.7z"/>
	<polygon class="st4" points="161.9,128.2 163.1,145.2 166.1,144.3 	"/>
	<path class="st5" d="M248.2,128.1c-0.1,0-0.2-0.1-0.3-0.1l-0.8-0.4c-1-0.5-1.9-0.8-3-1.2c-3.7-1.2-7.7-1.4-11.5-0.6
		c-2.6,0.6-5.1,1.6-7.4,3c-2.5,1.5-5,3.3-7.7,5.1c-2.8,2-6,3.5-9.3,4.4c-3.6,0.9-7.3,1.1-11,0.4c-1.9-0.3-3.7-0.8-5.4-1.5
		c-1.7-0.7-3.3-1.5-4.9-2.5c-1.5-1-2.8-2.1-4.1-3.3c-1.2-1.2-2.3-2.5-3.3-3.8c-2-2.6-3.7-5.2-5.4-7.6c-1.5-2.2-3.3-4.2-5.4-6
		c-1.7-1.4-3.6-2.6-5.6-3.4c-1.5-0.6-3.2-1-4.9-1.1c-1.4,0-2.8,0.2-4.2,0.6l0.3-0.1l0.8-0.3c0.4-0.1,0.8-0.2,1.3-0.3
		c0.6-0.1,1.2-0.1,1.9-0.1c1.7,0,3.4,0.4,4.9,1c2.1,0.8,4,2,5.8,3.4c2.1,1.8,3.9,3.8,5.4,6c1.8,2.3,3.4,4.9,5.4,7.5
		c1,1.3,2.1,2.6,3.3,3.8c1.2,1.2,2.6,2.3,4,3.2c1.5,1,3.1,1.8,4.8,2.4c1.7,0.7,3.5,1.1,5.3,1.4c3.6,0.6,7.3,0.5,10.8-0.4
		c3.3-0.9,6.4-2.3,9.2-4.3c2.7-1.8,5.2-3.6,7.8-5.1c2.3-1.4,4.9-2.4,7.5-3c3.9-0.8,7.9-0.5,11.6,0.8c1,0.3,2,0.8,2.9,1.2l0.7,0.4
		L248.2,128.1z"/>
	<path class="st5" d="M267.8,120c0.1,0.4,0.1,0.8,0.1,1.2c0,1.1-0.1,2.3-0.3,3.4c-0.3,1.7-0.8,3.3-1.6,4.8c-0.9,1.8-2,3.6-3.3,5.2
		c-2.3,2.9-5.3,5.3-8.7,6.9c-1,0.5-2.1,0.9-3.1,1.2c-0.4,0.1-0.8,0.2-1.2,0.3c0-0.1,1.7-0.5,4.2-1.8c3.3-1.7,6.1-4,8.4-6.9
		c1.3-1.6,2.3-3.3,3.3-5.1c0.8-1.5,1.3-3,1.7-4.6C267.5,123,267.7,121.5,267.8,120z"/>
	<path class="st5" d="M279.9,167.7c0,0-0.1-0.1-0.4-0.2c-0.3-0.2-0.7-0.5-1-0.7c-1.2-0.9-2.3-2.1-3.2-3.3c-3-4.2-4.5-9.2-4.5-14.3
		c0.1-5.1,1-10.1,2.6-14.9c0.6-1.9,1.1-3.3,1.4-4.4c0.2-0.5,0.4-1.1,0.6-1.6c-0.1,0.6-0.2,1.1-0.4,1.6c-0.3,1.1-0.8,2.6-1.3,4.4
		c-1.5,4.8-2.3,9.8-2.4,14.8c0,5,1.5,10,4.3,14.1C276.8,164.9,278.2,166.4,279.9,167.7z"/>
	<path class="st5" d="M303.5,122.9c-0.3,0.2-0.6,0.4-1,0.5c-0.6,0.3-1.6,0.7-2.8,1.1c-3.1,1.2-6.4,1.7-9.7,1.6
		c-3.3-0.1-6.6-1.3-9.2-3.3c-0.8-0.6-1.5-1.3-2.1-2.1c-0.2-0.3-0.4-0.6-0.6-0.9c0.9,1,1.9,1.9,2.9,2.8c2.6,1.9,5.8,2.9,9,3.1
		c3.2,0.1,6.5-0.4,9.5-1.5C302,123.4,303.4,122.8,303.5,122.9z"/>
	<path class="st5" d="M154.7,145c-0.1,0-0.5-1.6-1.4-4c-2.4-6.4-6.3-12.2-11.3-16.9c-1.9-1.8-3.2-2.8-3.2-2.9c0.4,0.2,0.7,0.4,1,0.6
		c0.8,0.6,1.7,1.3,2.4,2c5.2,4.6,9.1,10.5,11.4,17.1c0.3,1,0.6,2,0.9,3C154.6,144.2,154.7,144.6,154.7,145z"/>
	<path class="st5" d="M166.3,146.7c-0.1,0.2-0.1,0.4-0.3,0.5c-0.3,0.5-0.6,1-0.9,1.4c-1.3,1.6-3,3-4.9,4c-2.8,1.4-5.8,2.4-8.8,2.9
		c-3.4,0.6-7.3,0.8-11.2,1.5c-1.9,0.3-3.8,0.8-5.7,1.4c-1.7,0.6-3.3,1.4-4.9,2.4c-2.6,1.7-4.8,3.8-6.6,6.3c-1.2,1.7-2.2,3.5-2.9,5.5
		c-0.5,1.4-0.7,2.2-0.8,2.1c0-0.2,0-0.4,0.1-0.6c0.1-0.6,0.3-1.1,0.5-1.6c0.7-2,1.6-3.9,2.8-5.6c1.8-2.6,4-4.8,6.6-6.5
		c1.5-1,3.2-1.8,4.9-2.5c1.9-0.6,3.8-1.1,5.7-1.4c4-0.6,7.8-0.9,11.3-1.4c3-0.5,6-1.4,8.8-2.7c1.8-0.9,3.5-2.2,4.9-3.8
		C165.9,147.4,166.3,146.7,166.3,146.7z"/>
	<path class="st5" d="M187.7,149.4c0.2,0.3,0.3,0.7,0.4,1c0.3,0.9,0.5,1.8,0.6,2.8c0.2,1.4,0.3,2.8,0.2,4.2
		c-0.1,3.5-0.8,6.9-2.2,10.1c-0.6,1.3-1.2,2.5-2,3.7c-0.5,0.8-1.1,1.6-1.7,2.3c-0.4,0.5-0.7,0.8-0.7,0.7s0.9-1.2,2.1-3.2
		c0.7-1.2,1.3-2.4,1.9-3.7c0.6-1.6,1.2-3.2,1.5-4.8c0.4-1.7,0.6-3.4,0.6-5.1c0.1-1.4,0-2.8-0.1-4.1
		C188,150.9,187.6,149.5,187.7,149.4z"/>
	<path class="st5" d="M250,164.6c-2.2-0.9-4.4-1.6-6.7-1.9c-2.3-0.2-4.7-0.1-7,0.3c0.6-0.3,1.3-0.5,2-0.6c3.3-0.6,6.8-0.2,9.9,1.2
		C248.9,163.8,249.5,164.1,250,164.6z"/>
	<polygon class="st6" points="296.7,64.2 286.6,89.2 305.5,97.7 310.4,76.5 	"/>
	<path class="st1" d="M318.4,88.9l-17-21.1l0,0c-3.4-4.7-8.9-12.4-9.1-13c-0.4-1-0.5-7.8-0.3-9.6c0-2.2-0.2-4.4-0.4-6.6l-14,5.3
		l-3-10.8l-1.9,0.6c0,0-5.1,8.8-3.5,13.8s8.2,7.2,9.8,8.3s7.9,3.7,14.9,14.3l1.1,1.6l0,0l2.9,4.1l0,0l13,18.7
		c1.5,2.2,4.4,2.7,6.6,1.3c2.2-1.5,2.7-4.4,1.3-6.6C318.6,89.1,318.5,89,318.4,88.9L318.4,88.9z"/>
	<path class="st1" d="M285,41l-3.7-10.3l1.3-0.4c0,0,6.5,4,7.9,8.7L285,41z"/>
	<path class="st0" d="M281.1,54.7l0.2-0.1l0.4-0.2l1.6-0.7l6-2.7l-0.1-0.1c0,0.6,0,1.2,0,1.8c0,0.7,0.2,1.4,0.4,2
		c0.7,1.2,1.5,2.3,2.4,3.6c1.7,2.4,3.6,5.1,5.7,7.9c0.3,0.3,0.5,0.7,0.6,1.2c0.2,1.1-0.6,2.1-1.6,2.2c-0.2,0-0.5,0-0.7,0
		c-0.4-0.1-0.7-0.3-1-0.6c-0.2-0.3-0.5-0.7-0.8-1l-1.5-2l-5.1-6.8c-0.4-0.5-0.8-0.9-1.2-1.2c-0.4-0.3-0.9-0.6-1.3-0.9
		c-0.8-0.5-1.5-0.9-2.1-1.3s-1.1-0.6-1.4-0.8l-0.4-0.2L281.1,54.7c0.1,0.1,0.1,0.1,0.2,0.2l0.4,0.2l1.3,0.8c0.6,0.3,1.3,0.8,2.1,1.3
		c0.4,0.3,0.8,0.6,1.2,0.9c0.5,0.3,0.9,0.7,1.2,1.2l5,6.9l1.5,2c0.2,0.3,0.5,0.7,0.8,1c0.3,0.3,0.7,0.6,1.2,0.7
		c1.2,0.3,2.4-0.5,2.6-1.7c0.1-0.3,0.1-0.5,0-0.8c-0.1-0.5-0.3-0.9-0.6-1.3c-2-2.8-4-5.4-5.7-7.9c-0.9-1.2-1.7-2.4-2.4-3.5
		c-0.3-0.6-0.4-1.2-0.4-1.8c0-0.6,0-1.2,0-1.8v-0.2l-0.1,0.1l-6,2.9l-1.6,0.8l-0.4,0.2L281.1,54.7z"/>
	<g class="st3">
		<polygon points="279.8,49.6 286.1,47.3 286,43.8 279.7,46.2 		"/>
	</g>
	<path class="st0" d="M284.7,43.6c-0.3,0.8-0.3,1.7-0.2,2.6c-0.1,0.9,0,1.8,0.3,2.6c0.3-0.8,0.4-1.7,0.2-2.6
		C285.1,45.3,285,44.4,284.7,43.6z"/>
	<path class="st0" d="M282.8,44.3c-0.3,0.8-0.3,1.7-0.2,2.6c-0.1,0.9,0,1.8,0.3,2.6c0.3-0.8,0.3-1.7,0.2-2.6
		C283.2,46,283.1,45.1,282.8,44.3z"/>
	<path class="st0" d="M281,44.7c-0.3,0.8-0.3,1.7-0.2,2.6c-0.1,0.9,0,1.8,0.3,2.6c0.3-0.8,0.3-1.7,0.2-2.6
		C281.3,46.4,281.2,45.6,281,44.7z"/>
	<path class="st6" d="M287.2,87.6l0.7-4.9l0.5-13l-0.5-9.1c0,0,3,0.2,4.7,4.2s1.7,9.9,1.7,9.9s12.7,5,8.2,17"/>
	<path class="st6" d="M304.4,67.8c0.1-1-0.1-2-0.6-2.9c-0.7-1-1.7-1.6-2.8-1.8c-1-0.2-2.1-0.2-3.1,0l2.4,3.3c-0.5,2-0.8,4-1.1,6.1
		c-0.1,1.1-0.1,2.4,0.8,2.9c0.8,0.4,1.8,0.1,2.3-0.5c0.5-0.7,0.9-1.5,1.1-2.3C304,71,304.3,69.4,304.4,67.8z"/>
	<path class="st6" d="M308,71.6c0.1-1-0.1-2-0.6-2.9c-0.7-1-1.7-1.6-2.8-1.8c-1-0.2-2.1-0.2-3.1,0l2.4,3.3c-0.5,2-0.8,4-1.1,6.1
		c-0.1,1-0.1,2.4,0.8,2.9c0.8,0.4,1.8,0.1,2.3-0.5c0.5-0.7,0.9-1.5,1.1-2.3C307.6,74.8,307.9,73.3,308,71.6z"/>
	<path class="st6" d="M311.8,75.4c0.1-1-0.1-2-0.6-2.9c-0.7-1-1.7-1.6-2.8-1.8c-1-0.2-2.1-0.2-3.1,0l2.4,3.3c-0.5,2-0.8,4-1.1,6.1
		c-0.1,1.1-0.1,2.4,0.8,2.9c0.8,0.4,1.8,0.1,2.3-0.5c0.5-0.7,0.9-1.5,1-2.4C311.3,78.6,311.6,77,311.8,75.4z"/>
	<path class="st7" d="M304.2,65.4c0.4,1.4,0.5,3,0.2,4.4c-0.1,1.5-0.6,2.9-1.4,4.2c-0.1-0.1,0.6-1.9,0.9-4.3S304,65.5,304.2,65.4z"
		/>
	<path class="st7" d="M308,70.7c0.6,2.6,0,5.3-1.6,7.5c-0.1-0.1,0.7-1.6,1.1-3.7S307.9,70.7,308,70.7z"/>
	<path class="st7" d="M292.8,65.4c0.3,0.9,0.4,1.7,0.5,2.6c0.3,1.7,0.7,4,1.1,6.8l-0.2-0.2c3.8,1.3,6.8,4.2,8.3,8
		c0.6,1.5,0.9,3.1,1,4.8c0,1.1-0.1,2.2-0.3,3.3c-0.1,0.4-0.2,0.8-0.3,1.2c0.2-1.5,0.3-2.9,0.3-4.4c-0.1-1.6-0.5-3.2-1.1-4.6
		c-0.7-1.8-1.8-3.4-3.3-4.8c-1.4-1.3-3-2.3-4.7-2.9H294V75c-0.4-2.8-0.7-5.1-0.9-6.8C292.9,67.3,292.8,66.4,292.8,65.4z"/>
	<path class="st0" d="M291.5,38.6l-0.2,0.1l-0.6,0.2l-2.4,0.9l-7.8,3l-7.8,3l-2.4,0.9l-0.6,0.2c-0.1,0.1-0.2,0.1-0.2,0.1l0.2-0.1
		l0.6-0.3l2.3-1c2-0.8,4.7-1.9,7.7-3s5.8-2.2,7.8-2.9c1-0.3,1.8-0.6,2.4-0.8l0.6-0.2C291.3,38.6,291.4,38.6,291.5,38.6z"/>
	<path class="st6" d="M204.6,154.9c0,0,12.5-3.4,14.6-3.5c1.6-0.1,11.1,1.6,15.4,2.3c1.7,0.3,2.9,1.8,2.7,3.5c0,0.1,0,0.2-0.1,0.3
		c-0.4,1-1.3,1.7-2.4,1.8c1.3,0.6,2,2,1.8,3.5c-0.3,2.5-3.4,2.5-3.4,2.5s0.1,0.2,0.4,0.4c1,1.4,0.6,3.2-0.7,4.2
		c-0.4,0.3-0.9,0.5-1.5,0.5l-1.4,0.1c0.9,0.6,1.5,1.6,1.4,2.7c-0.5,3.2-7.9,2.7-7.9,2.7l-19.8-0.4L204.6,154.9z"/>
	<path class="st6" d="M233.5,149.7c-0.2,1-0.8,3.3-2.8,4l-10-1.9c0,0,7.9-1.4,9.1-2.6c0.5-0.5,1.1-0.9,1.6-1.2
		c0.7-0.4,1.6-0.1,1.9,0.6C233.6,149,233.6,149.3,233.5,149.7z"/>
	<path class="st7" d="M225.5,152.4c0,0.2,2,0.7,4.5,1s4.6,0.6,4.6,0.4s-2-0.7-4.5-1S225.5,152.2,225.5,152.4z"/>
	<path class="st7" d="M226.9,158.4c0,0.2,1.7,0.8,3.9,1s4,0.1,4-0.1s-1.8-0.3-3.9-0.6S226.9,158.2,226.9,158.4z"/>
	<path class="st7" d="M221.9,156.9c-0.2,0.1,0,0.6,0.5,1.1s1.1,0.5,1.1,0.3s-0.3-0.5-0.7-0.8S222.1,156.8,221.9,156.9z"/>
	<path class="st7" d="M224.8,164.5c0,0.2,1.9,0.6,4.3,0.8s4.4,0.4,4.4,0.2s-1.9-0.6-4.3-0.8S224.8,164.4,224.8,164.5z"/>
	<path class="st7" d="M219.5,161c-0.1,0-0.3,0.1-0.4,0.5c-0.1,0.5-0.1,1.1,0.2,1.5c0.3,0.5,0.7,0.8,1.2,1c0.4,0.1,0.6,0,0.6-0.1
		s-0.8-0.4-1.3-1.2S219.7,161.1,219.5,161z"/>
	<path class="st7" d="M222.3,170.5c0,0.2,1.8,0.4,3.9,0.4s3.9,0,3.9-0.2s-1.8-0.4-3.9-0.4S222.4,170.4,222.3,170.5z"/>
	<path class="st7" d="M217.2,166.5c-0.1,0-0.2,0.2-0.3,0.6c0,0.5,0.1,1,0.3,1.4c0.6,1,1.4,1.4,1.5,1.3s-0.4-0.8-0.9-1.7
		S217.4,166.6,217.2,166.5z"/>
	<path class="st0" d="M165.6,56.4c-0.4-3.2-3.9-5.5-7.1-5c-3.2,0.7-5.8,3.1-6.6,6.3c-0.8,3.2-0.4,6.5,1,9.4c1,2.3,2.8,4.6,5.2,5.1
		c2.4,0.3,4.7-0.6,6.2-2.5c1.4-1.8,2.6-3.9,3.3-6.1L165.6,56.4z"/>
	<path class="st2" d="M169.7,55.7c-1.1-0.6-2.5-0.3-3.2,0.7c-0.7,1-1,2.2-1,3.4c-0.1,2,0.3,4,1.1,5.8c0.2,0.6,0.6,1.1,1.1,1.3
		c0.6,0.1,1.2-0.1,1.5-0.6c0.3-0.5,0.6-1,0.7-1.6c0.8-3.3,0.6-6.8-0.5-10.1"/>
	<path class="st2" d="M226.4,40.3c5.6-2.8,8.9-5.6,8.4-7.9s-11.8-5.9-14.4-6.9c-6.2-2.3-12.2,3.2-22,5.2
		c-19.2,3.8-33.9,10.9-33,15.7c0.5,2.3,4.5,3.7,10.7,4.1"/>
	<g class="st8">
		<path d="M223,40.8c5-2.4,8-5,7.4-7c-1.5-5.7-15.3-5-32.3-1.5s-30.1,9.6-29.2,13.9c0.4,2.1,4,3.3,9.5,3.6"/>
	</g>
	<path class="st6" d="M178.4,47.9c-2.3-13,6.4-25.5,19.4-27.8c0.2,0,0.4-0.1,0.6-0.1c12.7-1.9,24.5,7,27.1,19.5
		c2.3,11,4.3,22.2,4.5,26.2c0.5,12.3-6.4,17.4-9.3,19c-1,0.4-2.1,0.8-3.2,1l0,0c0,0-0.1,0.1-0.1,0.1c0,0,0,0,0,0l3.5,13.9
		c1.7,9.2-3,17.7-12.1,19.5s-16.8-4.9-18.7-14L178.4,47.9z"/>
	<path class="st0" d="M221.8,47.2c0.2,1-0.4,2-1.5,2.3c-1,0.3-2-0.3-2.3-1.3c0,0,0,0,0,0c-0.2-1,0.4-2,1.5-2.3
		C220.5,45.6,221.6,46.2,221.8,47.2C221.8,47.2,221.8,47.2,221.8,47.2z"/>
	<path class="st0" d="M222.9,43c-0.2,0.3-1.9-0.5-3.9-0.1s-3.4,1.8-3.6,1.6s0-0.6,0.6-1.2c0.8-0.8,1.8-1.3,2.9-1.6
		c1.1-0.2,2.2-0.1,3.2,0.4C222.8,42.5,223,42.9,222.9,43z"/>
	<path class="st0" d="M201.6,51.3c0.2,1-0.4,2-1.5,2.3c-1,0.3-2-0.3-2.3-1.3c0,0,0,0,0-0.1c-0.2-1,0.4-2,1.5-2.3
		C200.2,49.7,201.3,50.2,201.6,51.3C201.6,51.2,201.6,51.3,201.6,51.3z"/>
	<path class="st0" d="M202.8,47.5c-0.2,0.3-1.9-0.5-3.9-0.1s-3.4,1.8-3.6,1.6c-0.1-0.1,0-0.6,0.6-1.2c0.8-0.8,1.8-1.3,2.9-1.6
		c1.1-0.2,2.2-0.1,3.2,0.4C202.5,47,202.9,47.4,202.8,47.5z"/>
	<path class="st0" d="M213.3,61.3c1-0.6,2.1-1,3.2-1.3c0.5-0.2,1-0.4,1-0.7c-0.1-0.6-0.3-1.1-0.7-1.5l-2.4-3.7
		c-3.3-5.3-5.8-9.7-5.6-9.8s3.1,4,6.4,9.3l2.3,3.7c0.5,0.6,0.7,1.3,0.7,2c-0.1,0.4-0.3,0.8-0.7,0.9c-0.3,0.1-0.6,0.2-0.9,0.3
		C215.6,61,214.5,61.2,213.3,61.3z"/>
	<path class="st7" d="M217.5,85.8c0,0-7.8,2.2-19-1.7c0,0,5.3,9.9,19.9,5.5L217.5,85.8z"/>
	<path class="st7" d="M213.4,66.4c-1-0.8-2.4-1.1-3.6-0.7c-0.9,0.3-1.7,0.9-2.1,1.7c-0.4,0.8-0.3,1.8,0.3,2.5
		c0.8,0.6,1.9,0.7,2.8,0.1c0.9-0.5,1.7-1.2,2.3-2.1c0.2-0.2,0.4-0.5,0.5-0.7c0.1-0.3,0-0.6-0.2-0.8"/>
	<path class="st0" d="M207.5,63.9c0.3-0.1,0.8,2.2,3,3.3s4.6,0.5,4.6,0.8c0.1,0.1-0.4,0.5-1.4,0.8c-1.3,0.3-2.7,0.1-3.9-0.5
		c-1.1-0.6-2-1.6-2.4-2.8C207.2,64.5,207.4,63.9,207.5,63.9z"/>
	<path class="st0" d="M202.2,40.8c-0.1,0.6-2.2,0.8-4.6,1.5s-4.2,1.8-4.6,1.4c-0.2-0.2,0.1-0.8,0.7-1.5c1.9-1.8,4.4-2.6,7-2.2
		C201.8,40.2,202.3,40.6,202.2,40.8z"/>
	<path class="st0" d="M221.1,37.9c-0.3,0.5-1.8,0.3-3.5,0.7s-3.1,1-3.5,0.5c-0.2-0.2-0.1-0.7,0.5-1.3c1.5-1.5,3.7-1.8,5.6-1
		C220.9,37.2,221.2,37.6,221.1,37.9z"/>
	<path class="st0" d="M207.4,28.2c-1.6,3.7-4.7,6.5-8.6,7.6c-2.5,0.7-5.4,0.8-7,2.9c-1.1,1.5-1.1,3.5-1.4,5.4
		c-0.4,2.8,0.3,6.1-1.9,8c-1.7,1.5-3.3,1.4-4.3,3.4s-0.8,4.8-0.4,7.1s1,6-0.9,7.5c-1.8-8.4-6.3-17.5-8.1-25.9
		c-0.3-1.2-0.5-2.5-0.3-3.8c0.5-2.9,3.2-4.7,5.8-6c7.4-3.7,15.4-5.6,23.4-7.4"/>
	<path class="st2" d="M229.5,31c0,0-9.1-19.4-9.7-20.3s-8.2-8.7-22.6-8.4l-11.5,2.3c0,0-15.3,8.5-17.4,13.1s0.4,24.1,0.4,24.1
		l30.8-13.5l23,0.9L229.5,31z"/>
	<path class="st2" d="M193,0.7l3.2-0.6c1.3-0.3,2.6,0.3,3.4,1.3c0.6,0.9,1.1,2,1.4,3.1c0.9,3.5,6.7,27.9,6.7,27.9L193,34.6
		l-5.6-30.3l-4.6,2.1l-0.1-0.9c-0.1-0.5,0-1.1,0.3-1.6l0,0c0.4-0.7,1-1.1,1.8-1.3L193,0.7z"/>
	<path class="st1" d="M225.9,33.9l-2.9-6.8L199,24.6L173.5,38l1.6,8C175.1,46,196.1,32.3,225.9,33.9z"/>
	<path class="st2" d="M220.3,25.4l1.1,0.7l8.7,4.2c0,0-15.8-2-31.3,1.3s-32.2,12.1-32.2,12.1l9-8.2l0,0c2.6-4.1,6.7-7.1,11.5-8.1
		l19.4-4.3C211.3,21.9,216.3,22.8,220.3,25.4z"/>
	<path class="st0" d="M228,31c0,0-0.2-0.1-0.6-0.3c-0.6-0.3-1.2-0.5-1.8-0.7c-2.2-0.6-4.5-0.9-6.8-0.9c-7.6-0.1-15.2,0.9-22.4,3.1
		c-4.3,1.2-8.4,2.2-12,3.5c-3.2,1.2-6.3,2.5-9.4,4c-1.3,0.7-2.4,1.3-3.4,1.9c-0.9,0.5-1.7,1.2-2.3,2c-0.4,0.6-0.5,1.2-0.4,1.9
		c0.1,0.4,0.3,0.6,0.3,0.6c-0.2-0.8-0.1-1.6,0.4-2.3c0.6-0.7,1.4-1.3,2.2-1.7c1-0.6,2.1-1.2,3.4-1.8c2.6-1.2,5.8-2.6,9.4-3.8
		s7.7-2.2,12-3.4c7.2-2.2,14.7-3.3,22.2-3.4c2.3,0,4.5,0.2,6.8,0.7C227.2,30.7,228,31.1,228,31z"/>
	<path class="st0" d="M225.8,33.7c2.8,6.2,12.4,15,3.2,23.6c0,0-2.9-14-5.2-19.2c-0.6-1.6-1.5-3-2.7-4.2"/>
	<path class="st0" d="M178.3,45.3c-6.6,1.3-11,7.5-10,14.1c0.3,1.7,1,3.3,0.8,5s-1.1,3.1-1.5,4.7c-0.8,3.1-1,8.3,0.1,11.4
		c2.5,7.3,11.8,16.3,20.2,14.6"/>
	<path class="st0" d="M184.5,88.9c1.8,0.3,3.6-0.2,4.9-1.5c1.2-1.3,2.1-2.8,2.6-4.6c1.6-5.6,0.4-11.6-3.3-16.1
		c4.2-7.7,4.4-16.9,0.3-24.7l-11.8,3.5L184.5,88.9z"/>
	<path class="st1" d="M165.8,63.6c-0.5,0.7-1.1,1.3-1.9,1.7c-1.8,1.1-3.8,1.5-5.9,1.3c-2.1-0.2-4-1.2-5.4-2.7
		c-0.6-0.6-1-1.4-1.1-2.2c0.4,0.7,0.9,1.4,1.4,2c1.4,1.3,3.3,2.2,5.2,2.4c2,0.2,3.9-0.2,5.6-1.1C165,64.2,165.7,63.5,165.8,63.6z"/>
	<path class="st1" d="M164.9,62c-0.6,0.4-1.3,0.6-2.1,0.7c-3.6,0.7-7.3-0.5-9.8-3.2c-0.5-0.5-1-1.1-1.2-1.8c0.1,0,0.5,0.7,1.5,1.6
		c2.5,2.4,6,3.5,9.5,3.1C164.1,62.2,164.8,61.9,164.9,62z"/>
	<path class="st1" d="M190.4,45.3c0,0.4,0,0.8-0.1,1.2c-0.1,1.1-0.4,2.1-0.8,3.2c-2.4,7-8.8,11.8-16.2,12c-1.1,0-2.2,0-3.2-0.2
		c-0.4,0-0.8-0.1-1.1-0.3c1.4,0.1,2.9,0.2,4.4,0.1c7.2-0.4,13.4-5,15.9-11.7C189.7,48.2,190.1,46.8,190.4,45.3z"/>
	<path class="st1" d="M190.8,63c0,0-0.2,0.3-0.6,0.7c-0.6,0.6-1.3,1.1-2,1.5c-2.4,1.4-5.1,2-7.9,2c-2.7-0.1-5.4-0.5-8-1.2
		c-1-0.3-1.8-0.5-2.4-0.7c-0.3-0.1-0.6-0.2-0.8-0.3c1.1,0.2,2.2,0.4,3.3,0.7c2.6,0.6,5.3,1,7.9,1.1c2.7,0,5.3-0.6,7.7-1.8
		C189,64.3,189.9,63.7,190.8,63z"/>
	<path class="st0" d="M230,29c-0.2,0-0.5-0.1-0.7-0.2l-1.9-0.7l-7.1-2.6l0,0l0,0l-1.8-1.7c-0.6-0.6-1.3-1.2-2.1-1.6
		c-0.8-0.4-1.7-0.7-2.6-0.8c-1,0-2,0.1-3,0.3c-4.1,0.7-8.6,1.6-13.2,2.7c-4.3,1-8.5,2-12.2,3c-0.9,0.2-1.8,0.5-2.6,1
		c-0.7,0.4-1.4,1-1.9,1.7c-0.9,1.4-1.8,2.9-2.5,4.2l0,0l0,0l-6.9,5.1l-1.9,1.4c-0.2,0.2-0.4,0.3-0.7,0.4c0.2-0.2,0.4-0.4,0.6-0.5
		l1.8-1.5l6.7-5.2v0.1c0.8-1.3,1.6-2.8,2.5-4.3c0.5-0.8,1.2-1.4,2-1.9c0.8-0.5,1.8-0.8,2.7-1c3.8-1,7.9-2,12.3-3
		c4.7-1.1,9.1-2,13.3-2.7c1-0.2,2-0.3,3.1-0.2c1,0.1,1.9,0.4,2.8,0.9c0.8,0.5,1.5,1.1,2.1,1.7l1.8,1.7h-0.1l7.1,2.7l1.9,0.8
		C229.6,28.9,229.8,28.9,230,29z"/>
	<path class="st0" d="M191.4,25.7c-0.1-0.3-0.2-0.7-0.3-1c-0.1-0.7-0.4-1.6-0.6-2.7c-0.5-2.3-1.1-5.5-1.8-9c-0.3-1.8-0.6-3.5-0.9-5
		c-0.1-0.8-0.2-1.5-0.4-2.2c-0.1-0.5-0.5-0.9-1.1-0.8c0,0-0.1,0-0.1,0l-2.6,1c-0.3,0.2-0.7,0.3-1,0.3c0.3-0.2,0.6-0.4,0.9-0.5
		c0.6-0.3,1.4-0.7,2.5-1.2c0.7-0.2,1.4,0.1,1.7,0.8c0,0.1,0,0.1,0,0.2c0.1,0.7,0.3,1.4,0.4,2.2c0.3,1.5,0.6,3.2,0.9,5
		c0.6,3.5,1.2,6.8,1.6,9.1c0.2,1.2,0.3,2.1,0.4,2.8C191.3,25,191.4,25.3,191.4,25.7z"/>
	<path class="st0" d="M205.2,22.6c-0.5-0.9-0.8-1.9-1-2.9c-0.6-1.8-1.2-4.4-1.9-7.2s-1.2-5.4-1.6-7.2c-0.3-1-0.4-2-0.5-3
		c0.4,1,0.7,2,0.9,3c0.5,1.8,1.1,4.4,1.8,7.2s1.2,5.2,1.7,7.2C204.8,20.6,205.1,21.6,205.2,22.6z"/>
	<path class="st0" d="M229.8,62.8c2.1-0.1,4.1-0.6,5.9-1.4c2-0.9,3.8-2.2,5.1-4c1.5-2.3,1.9-5.1,1.3-7.7c-0.6-2.6-2.2-4.9-4.5-6.4
		c-2-1-4-1.9-6.1-2.7c-1.4-0.6-2.7-1.5-3.7-2.7c-0.3-0.3-0.5-0.6-0.7-1c-0.1-0.2-0.2-0.4-0.2-0.4c0.3,0.5,0.6,0.9,1,1.3
		c1.1,1.1,2.3,1.9,3.7,2.4c2.1,0.7,4.2,1.6,6.2,2.6c2.4,1.5,4.2,3.9,4.8,6.7c0.7,2.8,0.2,5.7-1.4,8.1c-1.4,1.8-3.2,3.2-5.4,4.1
		c-1.4,0.6-2.9,1-4.4,1.1c-0.4,0-0.8,0-1.2,0C230.1,62.9,229.9,62.8,229.8,62.8z"/>
	<path class="st0" d="M154.9,58.8c0,0-0.1,0-0.2-0.2c-0.2-0.2-0.4-0.4-0.6-0.6c-0.6-0.8-1-1.8-1.1-2.8c-0.2-1.5,0-3,0.8-4.3
		c2-3,6-3.9,9-1.9c0.2,0.1,0.5,0.3,0.7,0.5c1.1,1,1.8,2.4,2.1,3.9c0.2,1,0.1,2-0.3,3c-0.1,0.3-0.2,0.5-0.4,0.7
		c-0.1,0.2-0.1,0.2-0.2,0.2s0.1-0.4,0.3-1c0.2-0.9,0.3-1.9,0.1-2.8c-0.2-1.4-1-2.7-2-3.6c-2.6-2.1-6.5-1.8-8.7,0.9
		c-0.1,0.2-0.2,0.3-0.3,0.5c-0.7,1.2-1,2.6-0.8,4c0.1,1,0.4,1.9,0.9,2.7C154.7,58.5,155,58.7,154.9,58.8z"/>
	<path class="st0" d="M186,93.3c-0.1,0.1-0.3,0.1-0.4,0.1c-0.3,0.1-0.7,0.2-1.2,0.3c-1.5,0.4-3.1,0.6-4.6,0.7
		c-2.3,0.2-4.7-0.2-6.9-1.1c-2.6-1.2-4.8-3.3-6.2-5.8c-1.4-2.5-2.1-5.4-2.1-8.2c0-2.3,0.3-4.7,1-6.9c0.4-1.5,1-3,1.6-4.4
		c0.2-0.5,0.4-0.9,0.6-1.1c0.1-0.1,0.1-0.3,0.2-0.4c-0.2,0.5-0.4,1.1-0.6,1.6c-0.6,1.4-1.1,2.9-1.5,4.4c-0.6,2.2-0.9,4.5-0.9,6.8
		c0,2.8,0.7,5.5,2.1,8c1.3,2.5,3.4,4.4,5.9,5.6c2.1,0.9,4.4,1.3,6.7,1.1c1.5-0.1,3.1-0.2,4.6-0.5C184.9,93.5,185.5,93.4,186,93.3z"
		/>
	<path class="st0" d="M164.7,68.6c0,0.2-0.1,0.3-0.1,0.5c-0.2,0.4-0.4,0.9-0.6,1.3c-1,1.5-2.5,2.5-4.2,3c-1.2,0.3-2.4,0.4-3.6,0.2
		c-1.4-0.3-2.7-0.9-3.8-1.8c-1.2-1-2.2-2.2-2.9-3.6c-0.7-1.5-1.1-3.1-1.1-4.8c0-3.2,1.1-6.3,3.1-8.8c1.6-2.1,4.1-3.4,6.7-3.4
		c1.8,0,3.5,0.7,4.8,1.9c0.5,0.4,0.8,1,1.1,1.6c-0.4-0.5-0.8-1-1.2-1.4c-1.3-1.1-2.9-1.7-4.6-1.7c-2.5,0.1-4.9,1.3-6.4,3.3
		c-1.9,2.4-3,5.4-3,8.5c0,1.6,0.3,3.1,1,4.6c0.6,1.3,1.6,2.5,2.7,3.4c1,0.8,2.2,1.4,3.5,1.7c1.1,0.2,2.3,0.2,3.4-0.1
		c1.6-0.4,3.1-1.4,4.1-2.7C164.1,69.8,164.4,69.2,164.7,68.6z"/>
	<path class="st1" d="M125.1,176.7h325.5c8,0,14.6,6.5,14.6,14.6v205.4c0,8-6.5,14.6-14.6,14.6H125.1c-8,0-14.6-6.5-14.6-14.6V191.3
		C110.5,183.2,117,176.7,125.1,176.7z"/>
	<path class="st1" d="M96.7,396.1h384.2l0,0v2.7c0,9.8-8,17.8-17.8,17.8H114.5c-9.8,0-17.8-8-17.8-17.8L96.7,396.1L96.7,396.1z"/>
	<rect x="120" y="186" class="st0" width="334.6" height="198"/>
	<polygon class="st0" points="252.9,393.9 257.6,401.4 324.7,401.4 329.1,393.9 	"/>
	<path class="st9" d="M130.2,192.7h314.9c1.8,0,3.3,1.5,3.3,3.3v184.1c0,1.8-1.5,3.3-3.3,3.3H130.2c-1.8,0-3.3-1.5-3.3-3.3V196
		C126.9,194.2,128.4,192.7,130.2,192.7z"/>
	<polygon class="st5" points="448,383.7 126.6,383.7 126.9,207 448,207 	"/>
	<path class="st0" d="M153.3,200.1c0,1.4-1.2,2.6-2.6,2.6s-2.6-1.2-2.6-2.6c0-1.4,1.2-2.6,2.6-2.6c0,0,0,0,0,0
		C152.1,197.6,153.3,198.7,153.3,200.1C153.3,200.1,153.3,200.1,153.3,200.1z"/>
	<path class="st0" d="M137.8,200.1c0,1.4-1.2,2.6-2.6,2.6s-2.6-1.2-2.6-2.6c0-1.4,1.2-2.6,2.6-2.6c0,0,0,0,0,0
		C136.6,197.6,137.8,198.7,137.8,200.1C137.8,200.1,137.8,200.1,137.8,200.1z"/>
	<path class="st0" d="M145.2,200.1c0,1.4-1.2,2.6-2.6,2.6s-2.6-1.2-2.6-2.6c0-1.4,1.2-2.6,2.6-2.6c0,0,0,0,0,0
		C144.1,197.6,145.2,198.7,145.2,200.1z"/>
	<path class="st0" d="M462.1,393.9c0,0.1-78.7,0.2-175.8,0.2s-175.8-0.1-175.8-0.2s78.7-0.2,175.8-0.2S462.1,393.7,462.1,393.9z"/>
	<path class="st10" d="M328.7,349.2c0,0.1-19.3,0.3-43.1,0.3s-43.1-0.1-43.1-0.3s19.3-0.3,43.1-0.3S328.7,349.1,328.7,349.2z"/>
	<rect x="134.4" y="303.9" class="st11" width="95.9" height="72.1"/>
	<polygon class="st9" points="134.4,376.1 167.9,331.2 188.6,359.2 202.7,344.2 230.3,376 	"/>
	<path class="st9" d="M197.4,325.7c0,4.2-3.4,7.6-7.5,7.6c-4.2,0-7.6-3.4-7.6-7.5c0-4.2,3.4-7.6,7.5-7.6
		C194,318.2,197.4,321.5,197.4,325.7C197.4,325.7,197.4,325.7,197.4,325.7z"/>
	<rect x="341.3" y="304" class="st11" width="95.9" height="72.1"/>
	<polygon class="st9" points="341.4,376.2 374.8,331.3 395.6,359.4 409.7,344.4 437.3,376.1 	"/>
	<path class="st9" d="M404.4,325.8c0,4.2-3.4,7.6-7.5,7.6s-7.6-3.4-7.6-7.5s3.4-7.6,7.5-7.6c0,0,0,0,0,0
		C401,318.3,404.4,321.6,404.4,325.8z"/>
	<path class="st10" d="M422.1,289.7c0.9-0.1,1.8-0.2,2.7-0.2c1.7,0,4-0.1,6.5-0.1h2.8l-0.2,0.2c0-1.9,0-3.4,0.1-4.6
		c0-0.6,0-1.2,0.1-1.8c0.1,0.6,0.2,1.2,0.2,1.8c0,1.1,0.1,2.7,0.1,4.6v0.2h-3.1c-2.5,0-4.8,0-6.5-0.1
		C423.9,289.9,423,289.9,422.1,289.7z"/>
	<path class="st10" d="M398.1,289.7c4-0.3,8-0.3,12,0C406.1,290.1,402.1,290.1,398.1,289.7z"/>
	<path class="st10" d="M374.1,289.7c4-0.3,8-0.3,12,0C382.1,290.1,378.1,290.1,374.1,289.7z"/>
	<path class="st10" d="M350.1,289.7c4-0.3,8-0.3,12,0C358.1,290.1,354.1,290.1,350.1,289.7z"/>
	<path class="st10" d="M326.1,289.7c4-0.3,8-0.3,12,0C334.1,290.1,330.1,290.1,326.1,289.7z"/>
	<path class="st10" d="M302.1,289.7c4-0.3,8-0.3,12,0C310.1,290.1,306.1,290.1,302.1,289.7z"/>
	<path class="st10" d="M278.1,289.7c4-0.3,8-0.3,12,0C286.1,290.1,282.1,290.1,278.1,289.7z"/>
	<path class="st10" d="M254.1,289.7c4-0.3,8-0.3,12,0C262.1,290.1,258.1,290.1,254.1,289.7z"/>
	<path class="st10" d="M230.1,289.7c2-0.3,4-0.3,6-0.3c2-0.1,4,0,6,0.3c-2,0.3-4,0.3-6,0.3C234.1,290.1,232.1,290,230.1,289.7z"/>
	<path class="st10" d="M206.1,289.7c2-0.3,4-0.3,6-0.3c2-0.1,4,0,6,0.3c-2,0.3-4,0.3-6,0.3C210.1,290.1,208.1,290,206.1,289.7z"/>
	<path class="st10" d="M182.1,289.7c2-0.3,4-0.3,6-0.3c2-0.1,4,0,6,0.3c-2,0.3-4,0.3-6,0.3C186.1,290.1,184.1,290,182.1,289.7z"/>
	<path class="st10" d="M158.1,289.7c2-0.3,4-0.3,6-0.3c2-0.1,4,0,6,0.3c-2,0.3-4,0.3-6,0.3C162.1,290.1,160.1,290,158.1,289.7z"/>
	<path class="st10" d="M134.1,289.7L134.1,289.7c2-0.2,4-0.3,6-0.2c2-0.1,4,0,6,0.3c-2,0.3-4,0.3-6,0.3
		C138.1,290,136.1,290,134.1,289.7L134.1,289.7L134.1,289.7z"/>
	<path class="st10" d="M134.1,265.7c0.3,4,0.3,8,0,12C133.8,273.7,133.8,269.7,134.1,265.7z"/>
	<path class="st10" d="M134.1,241.7c0.3,2,0.3,4,0.3,6c0.1,2,0,4-0.3,6c-0.3-2-0.3-4-0.3-6C133.8,245.7,133.9,243.7,134.1,241.7z"/>
	<path class="st10" d="M134.1,217.7c0.3,2,0.3,4,0.3,6c0.1,2,0,4-0.3,6c-0.3-2-0.3-4-0.3-6C133.8,221.7,133.9,219.7,134.1,217.7z"/>
	<path class="st10" d="M154.9,214.5c-2,0.3-4,0.3-6,0.3c-2,0.1-4,0-6-0.3c2-0.3,4-0.4,6-0.3C150.9,214.2,153,214.3,154.9,214.5z"/>
	<path class="st10" d="M178.9,214.5c-2,0.3-4,0.3-6,0.3c-2,0.1-4,0-6-0.3c2-0.3,4-0.4,6-0.3C174.9,214.2,177,214.3,178.9,214.5z"/>
	<path class="st10" d="M202.9,214.5c-2,0.3-4,0.3-6,0.3c-2,0.1-4,0-6-0.3c2-0.3,4-0.4,6-0.3C198.9,214.2,201,214.3,202.9,214.5z"/>
	<path class="st10" d="M226.9,214.5c-2,0.3-4,0.3-6,0.3c-2,0.1-4,0-6-0.3c2-0.3,4-0.4,6-0.3C222.9,214.2,225,214.3,226.9,214.5z"/>
	<path class="st10" d="M250.9,214.5c-4,0.3-8,0.3-12,0c2-0.3,4-0.4,6-0.3C246.9,214.2,249,214.3,250.9,214.5z"/>
	<path class="st10" d="M274.9,214.5c-4,0.3-8,0.3-12,0C266.9,214.2,270.9,214.2,274.9,214.5z"/>
	<path class="st10" d="M298.9,214.5c-4,0.3-8,0.3-12,0C290.9,214.2,294.9,214.2,298.9,214.5z"/>
	<path class="st10" d="M322.9,214.5c-4,0.3-8,0.3-12,0C314.9,214.2,318.9,214.2,322.9,214.5z"/>
	<path class="st10" d="M346.9,214.5c-4,0.3-8,0.3-12,0C338.9,214.2,342.9,214.2,346.9,214.5z"/>
	<path class="st10" d="M370.9,214.5c-4,0.3-8,0.3-12,0C362.9,214.2,366.9,214.2,370.9,214.5z"/>
	<path class="st10" d="M394.9,214.5c-4,0.3-8,0.3-12,0C386.9,214.2,390.9,214.2,394.9,214.5z"/>
	<path class="st10" d="M418.9,214.5c-4,0.3-8,0.3-12,0C410.9,214.2,414.9,214.2,418.9,214.5z"/>
	<path class="st10" d="M434.1,223.3c-0.3-2-0.3-4-0.3-6c0-1,0-1.9,0-2.8l0.2,0.2c-1.1,0-2.1,0-3.2-0.2c1-0.2,2.1-0.3,3.2-0.2h0.2
		v0.2c0,0.9,0,1.8,0,2.8C434.4,219.4,434.3,221.4,434.1,223.3z"/>
	<path class="st10" d="M434.1,247.3c-0.3-2-0.3-4-0.3-6c-0.1-2,0-4,0.3-6c0.3,2,0.3,4,0.3,6C434.4,243.4,434.4,245.4,434.1,247.3z"
		/>
	<path class="st10" d="M434.1,271.3c-0.3-4-0.3-8,0-12C434.4,263.3,434.4,267.4,434.1,271.3z"/>
	<path class="st10" d="M328.7,373.5c0,0.1-19.3,0.3-43.1,0.3s-43.1-0.1-43.1-0.3s19.3-0.3,43.1-0.3S328.7,373.4,328.7,373.5z"/>
	<path class="st10" d="M328.7,362.4c0,0.1-19.3,0.3-43.1,0.3s-43.1-0.1-43.1-0.3s19.3-0.3,43.1-0.3S328.7,362.3,328.7,362.4z"/>
</g>
<g id="freepik--Sign--inject-92">
	<rect x="59.8" y="276.7" class="st0" width="5.2" height="139.7"/>
	<circle class="st2" cx="62.3" cy="251.5" r="30.1"/>
	<path class="st12" d="M89.5,251.1c0-0.1,0-0.3-0.1-0.4c0-0.3,0-0.7-0.1-1.3c0-0.3,0-0.6-0.1-1s-0.1-0.7-0.2-1.1
		c-0.1-0.9-0.3-1.9-0.6-2.8c-0.6-2.5-1.6-5-3-7.2c-1.8-3-4.1-5.5-6.9-7.6c-7.3-5.5-16.9-7-25.4-3.8c-1.2,0.4-2.4,0.9-3.5,1.5
		c-0.6,0.3-1.1,0.7-1.7,1c-0.6,0.3-1.1,0.7-1.6,1.1c-1.1,0.8-2.1,1.7-3,2.6c-1,1-1.8,2-2.6,3.1c-1.7,2.2-3,4.7-3.8,7.4
		c-0.9,2.7-1.4,5.6-1.4,8.5c0,2.9,0.5,5.7,1.4,8.5c0.9,2.7,2.2,5.2,3.8,7.4c0.8,1.1,1.7,2.1,2.6,3.1c1,0.9,2,1.8,3.1,2.6
		c0.5,0.4,1.1,0.8,1.6,1.1c0.6,0.3,1.1,0.7,1.7,1c1.1,0.6,2.3,1.1,3.5,1.5c12.1,4.4,25.7-0.4,32.3-11.5c1.4-2.2,2.4-4.6,3-7.2
		c0.3-0.9,0.5-1.9,0.6-2.8c0.1-0.4,0.1-0.8,0.2-1.1s0-0.7,0.1-0.9c0-0.6,0.1-1,0.1-1.3C89.4,251.4,89.4,251.3,89.5,251.1
		c0,0.2,0,0.3,0,0.4c0,0.3,0,0.8,0,1.3c0,0.3,0,0.6,0,1c0,0.4-0.1,0.7-0.1,1.1c-0.1,1-0.3,1.9-0.5,2.8c-0.6,2.6-1.6,5-3,7.3
		c-4,6.7-10.7,11.5-18.4,12.9c-4.8,0.9-9.8,0.5-14.4-1.2c-1.2-0.4-2.4-1-3.6-1.6c-0.6-0.3-1.1-0.7-1.7-1c-0.6-0.4-1.1-0.7-1.7-1.2
		c-1.1-0.8-2.1-1.7-3.1-2.6c-1-1-1.9-2.1-2.7-3.2c-1.7-2.3-3-4.8-3.9-7.5c-1.9-5.6-1.9-11.7,0-17.3c0.9-2.7,2.2-5.3,3.9-7.5
		c0.8-1.1,1.7-2.2,2.7-3.2c1-1,2-1.9,3.1-2.7c0.5-0.4,1.1-0.8,1.7-1.1c0.6-0.3,1.1-0.7,1.7-1c1.2-0.6,2.4-1.1,3.6-1.6
		c4.6-1.7,9.6-2.1,14.4-1.1c7.7,1.5,14.4,6.2,18.4,12.9c1.4,2.3,2.4,4.7,3,7.3c0.2,0.9,0.4,1.9,0.5,2.8c0.1,0.4,0.1,0.8,0.1,1.1
		s0,0.7,0,1c0,0.5,0,1,0,1.3C89.5,250.9,89.5,251,89.5,251.1z"/>
	<rect x="46.7" y="247.8" class="st5" width="31.4" height="6.5"/>
</g>
<g id="freepik--Crane--inject-92">
	
		<rect x="175.7" y="224.5" transform="matrix(0.9968 -8.002496e-02 8.002496e-02 0.9968 -20.3523 26.6975)" class="st12" width="294.3" height="85.5"/>
	<path class="st0" d="M473,298c-0.1-1.2-2.6-31.5-7-85.2l0.2,0.1l-293.4,23.7l0,0l0.2-0.3c2.4,29.4,4.7,58,6.8,85.2l-0.3-0.2
		l209.7-16.7L473,298l-1.4,0.1l-4.2,0.4l-16.5,1.4l-61.4,5l-209.9,17h-0.2v-0.3c-2.2-27.1-4.5-55.8-6.9-85.2v-0.3h0.3l0,0
		l293.4-23.5h0.2v0.2C470.6,266.5,472.9,296.8,473,298z"/>
	
		<rect x="183.2" y="241.8" transform="matrix(0.9976 -6.982913e-02 6.982913e-02 0.9976 -18.7612 16.7081)" class="st2" width="92.9" height="69.8"/>
	<path class="st10" d="M388.6,298c-2,0.4-4,0.7-6,0.8l-0.3-0.2l0,0v-0.3v-0.3c0-0.2,0-0.4,0-0.6c0-0.4-0.1-0.8-0.1-1.1
		c0-0.7-0.1-1.3-0.1-1.9c-0.1-0.6-0.1-1.2,0-1.8c0.2,0.6,0.3,1.1,0.3,1.7c0.1,0.6,0.1,1.2,0.2,1.9c0,0.4,0.1,0.7,0.1,1.1l0.1,0.6
		v0.3v0.3l0,0l-0.3-0.2C384.6,298,386.6,297.9,388.6,298z"/>
	<path class="st10" d="M415.8,295.7c-2.2,0.4-4.5,0.7-6.8,0.8c-2.3,0.3-4.5,0.4-6.8,0.3c2.2-0.4,4.5-0.7,6.8-0.8
		C411.2,295.7,413.5,295.6,415.8,295.7z"/>
	<path class="st10" d="M442.9,293.4c-2.2,0.4-4.5,0.7-6.8,0.8c-2.3,0.3-4.5,0.4-6.8,0.3c2.2-0.4,4.5-0.7,6.8-0.8
		C438.3,293.5,440.6,293.4,442.9,293.4z"/>
	<path class="st10" d="M461.9,285.8c0.4,2,0.7,3.9,0.8,6c-0.5,0.6-0.1,0.2-0.2,0.3h-0.3h-0.3h-0.6l-1.1,0.1l-1.9,0.1
		c-0.6,0.1-1.2,0.1-1.8,0c0.6-0.2,1.1-0.3,1.7-0.3l1.9-0.2l1.1-0.1l0.6,0h0.3h0.3c-0.1,0.1,0.2-0.3-0.2,0.3
		C461.9,289.8,461.8,287.8,461.9,285.8z"/>
	<path class="st10" d="M460,263.4c0.7,3.7,1,7.4,1,11.2c-0.4-1.8-0.7-3.7-0.7-5.6C460,267.2,460,265.3,460,263.4z"/>
	<path class="st10" d="M458.1,241c0.4,1.8,0.7,3.7,0.7,5.6c0.2,1.9,0.3,3.7,0.2,5.6c-0.4-1.8-0.7-3.7-0.7-5.6
		C458.1,244.8,458,242.9,458.1,241z"/>
	<path class="st10" d="M450.7,224.4c2-0.4,4-0.7,6-0.8l0.3,0.2l0,0v0.3v0.3c0,0.2,0,0.4,0,0.6c0,0.4,0,0.8,0.1,1.1
		c0,0.7,0.1,1.3,0.1,1.9c0.1,0.6,0.1,1.2,0,1.8c-0.2-0.6-0.3-1.1-0.3-1.7c-0.1-0.6-0.1-1.2-0.2-1.9c0-0.4-0.1-0.7-0.1-1.1l0-0.6
		v-0.3v-0.3l0,0l0.3,0.2C454.7,224.4,452.7,224.5,450.7,224.4z"/>
	<path class="st10" d="M423.6,226.6c2.2-0.4,4.5-0.7,6.8-0.8c2.3-0.3,4.5-0.4,6.8-0.3c-2.2,0.4-4.5,0.7-6.8,0.8
		C428.1,226.6,425.9,226.7,423.6,226.6z"/>
	<path class="st10" d="M396.4,228.9c2.2-0.4,4.5-0.7,6.8-0.8c2.3-0.3,4.5-0.4,6.8-0.3c-2.2,0.4-4.5,0.7-6.8,0.8
		C401,228.9,398.7,229,396.4,228.9z"/>
	<path class="st10" d="M377.4,236.6c-0.4-2-0.7-3.9-0.8-6c0.5-0.6,0.1-0.2,0.2-0.3h0.3h0.3l0.6,0l1.1-0.1l1.9-0.1
		c0.6-0.1,1.2-0.1,1.8,0c-0.6,0.2-1.1,0.3-1.7,0.3l-1.9,0.2l-1.1,0.1l-0.6,0h-0.3h-0.3l0.2-0.3C377.4,232.5,377.5,234.6,377.4,236.6
		z"/>
	<path class="st10" d="M379.3,259c-0.4-1.8-0.7-3.7-0.7-5.6c-0.2-1.9-0.3-3.7-0.2-5.6c0.4,1.8,0.7,3.7,0.7,5.6
		C379.3,255.2,379.4,257.1,379.3,259z"/>
	<path class="st10" d="M381.2,281.3c-0.4-1.8-0.7-3.7-0.7-5.6c-0.2-1.9-0.3-3.7-0.2-5.6c0.4,1.8,0.7,3.7,0.7,5.6
		C381.2,277.6,381.3,279.5,381.2,281.3z"/>
	<polygon class="st2" points="185.5,313.6 214.7,268.2 236.6,293.8 249.1,278.3 277.9,307.1 	"/>
	<path class="st2" d="M242.8,260.8c0.3,4-2.7,7.5-6.8,7.8c-4,0.3-7.5-2.7-7.8-6.8c-0.3-4,2.7-7.5,6.8-7.8c0,0,0,0,0,0
		C239,253.8,242.5,256.8,242.8,260.8z"/>
	<g class="st13">
		<polygon points="185.5,313.6 214.7,268.2 236.6,293.8 249.1,278.3 277.9,307.1 		"/>
	</g>
	<g class="st13">
		<path d="M242.8,260.8c0.3,4-2.7,7.5-6.8,7.8c-4,0.3-7.5-2.7-7.8-6.8c-0.3-4,2.7-7.5,6.8-7.8c0,0,0,0,0,0
			C239,253.8,242.5,256.8,242.8,260.8z"/>
	</g>
	<path class="st0" d="M369.3,249.6c0,0.1-18,1.9-40.1,4S289,257.2,289,257s18-1.9,40.1-4S369.3,249.4,369.3,249.6z"/>
	<path class="st0" d="M371.6,262.9c0,0.1-18.2,1.9-40.6,4s-40.6,3.6-40.6,3.5s18.1-1.9,40.6-4S371.6,262.8,371.6,262.9z"/>
	<path class="st0" d="M373.9,276.3c0,0.1-18.4,2-41,4s-41,3.7-41,3.5s18.3-2,41-4S373.9,276.1,373.9,276.3z"/>
	<path class="st0" d="M374.4,289.5c0,0.1-18.4,2-41,4.1s-41.1,3.7-41.1,3.5s18.4-2,41.1-4S374.4,289.4,374.4,289.5z"/>
	
		<rect x="287.2" y="242.4" transform="matrix(0.9968 -8.002496e-02 8.002496e-02 0.9968 -18.5465 25.4669)" class="st2" width="42.4" height="3.4"/>
	<path class="st10" d="M420.6,271.6c-0.1,0-0.7-4.9-1.2-11c-0.5-6.1-0.8-11.1-0.7-11.1s0.7,4.9,1.2,11
		C420.4,266.7,420.8,271.6,420.6,271.6z"/>
	<path class="st10" d="M429.8,260.1c0,0.1-4.7,0.6-10.6,0.9s-10.6,0.6-10.6,0.4c3.5-0.5,7.1-0.8,10.6-0.9
		C425.1,260.1,429.8,259.9,429.8,260.1z"/>
	<path class="st0" d="M466.2,212.9c0,0-0.2-0.1-0.7-0.2l-2-0.8l-7.9-3.1l-29.1-11.4L329.2,159h0.2l-12.3,6.1l-102,50.5l-30.9,15.2
		l-8.4,4.1l-2.2,1.1c-0.5,0.2-0.8,0.4-0.8,0.4l0.7-0.4l2.2-1.1l8.4-4.2l30.9-15.4l101.9-50.7l12.3-6.1h0.1h0.1l97.2,38.5l29,11.6
		l7.8,3.2l2,0.8L466.2,212.9z"/>
	<path class="st0" d="M406.5,73.1c-1.5-3.4-5.5-4.9-8.9-3.3c-1.5,0.7-2.6,1.8-3.3,3.3l-10.5,0.9l10.6,20.8l6.6-12.2
		c0.7-0.1,1.4-0.3,2.1-0.6C406.5,80.5,408,76.5,406.5,73.1C406.5,73.1,406.5,73.1,406.5,73.1z"/>
	<path class="st0" d="M346.1,43l6.8-2.9l-16.5-4.1c-2-3.1-6.1-4-9.2-2s-4,6.1-2,9.2c2,3.1,6.1,4,9.2,2c0.2-0.1,0.3-0.2,0.5-0.3
		l15.6,9.6L346.1,43z"/>
	<path class="st0" d="M477.8,247.4v-0.1L364.9,36.8l-0.6-1.2l-17.8,8.1l85.1,224.4l0,0.1l50.7,80.6l1-0.1l1.2-0.2l0.9-0.1
		l-10.5-16.7l6.1-15.8l16.2,6l7.2,23.6l0.8-0.1l1.1-0.2l1-0.1L477.8,247.4z M485.1,281.5l-20.3-5.2l11.8-23L485.1,281.5z M463,275.9
		l-24.9-6.4l36.8-16.8L463,275.9z M472.4,243.5l-25.9-7.2l10.6-21.3L472.4,243.5z M444.8,235.9l-22.8-6.3l33.5-15.3L444.8,235.9z
		 M454,209.1l-23.9-8.3l8.5-20.3L454,209.1z M428.4,200.2l-21-7.3l29.7-13.5L428.4,200.2z M435.3,174.2l-21.7-9.4l6.4-19.1
		L435.3,174.2z M411.9,164.1l-18.6-8l25.1-11.5L411.9,164.1z M416.9,139.9l-0.1,0.1l-19.5-10.6l4.3-18.1L416.9,139.9z M397.6,104
		l-17-11.4l2.2-16.1L397.6,104z M378.9,91.5l-13.7-9.2l16-7.3L378.9,91.5z M364.4,42.1l14.5,27L364,56.6L364.4,42.1z M361.7,75.8
		l-10.5-27.6l11,9.3L361.7,75.8z M362.3,55.1l-11.8-10l12.2-5.6L362.3,55.1z M364,58.9l14.3,12l-14.9,6.8L364,58.9z M364.9,84.2
		l13.8,9.3l-2.8,19.8L364.9,84.2z M380.3,94.6l16.6,11.1l-19.4,8.8L380.3,94.6z M400.1,109.7l-4.5,18.8l-16.8-9.1L400.1,109.7z
		 M379.1,121.6l16.1,8.7l-5,20.6L379.1,121.6z M396.8,131.2l17.9,9.7L392,151.2L396.8,131.2z M392.8,157.8l18.5,8l-7.3,21.6
		L392.8,157.8z M413,166.5l20.8,9l-28.1,12.8L413,166.5z M406.7,194.5l21,7.3l-9.6,22.8L406.7,194.5z M429.4,202.5l22.7,7.9L420,225
		L429.4,202.5z M420.6,231l23.4,6.5l-11.9,23.8L420.6,231z M445.8,238l25.4,7l-37.4,17L445.8,238z M436.8,271l25.5,6.5l-9.6,18.7
		L436.8,271z M464,278l20.7,5.3l-30.7,14L464,278z M473.8,329.9l-13.6-21.6l19.2,7.1L473.8,329.9z M480.1,313.7l-21.5-8l-0.5-0.8
		l30-13.6l0.3,1L480.1,313.7z M481.8,314.3l7.4-19.2l7.5,24.7L481.8,314.3z"/>
	<path class="st0" d="M329.1,136.4c0,0,0-0.6,0-1.8s0-2.9,0-5.2c0-4.6,0-11.3-0.1-19.9c0-17.2,0-42-0.1-72.3V37h0.2l31.6-3.3h0.1
		l0.1,0.1l82.4,92.2l120,134.3l36.4,40.7l9.9,11.1l2.5,2.9c0.6,0.6,0.9,1,0.9,1s-0.3-0.3-0.9-1s-1.5-1.6-2.6-2.9
		c-2.3-2.5-5.6-6.2-9.9-11l-36.4-40.6L443,126.3l-82.4-92.1l0.2,0.1l-31.7,3.3l0.2-0.2c0,30.3-0.1,55.1-0.1,72.3
		c0,8.6,0,15.3,0,19.9c0,2.3,0,4,0,5.2S329.1,136.4,329.1,136.4z"/>
	<path class="st0" d="M326.6,108.2h4.3c0.2,0,0.4,0.2,0.4,0.4v10.1c0,0.2-0.2,0.4-0.4,0.4h-4.3c-0.2,0-0.4-0.2-0.4-0.4v-10.1
		C326.3,108.3,326.4,108.2,326.6,108.2z"/>
	<path class="st0" d="M337.4,120.7h-16.6c-1,0-1.9-0.8-1.9-1.8v0l0,0c0-1,0.8-1.9,1.9-1.9l0,0h16.6c1,0,1.9,0.8,1.9,1.8v0l0,0
		C339.2,119.9,338.4,120.7,337.4,120.7C337.4,120.7,337.4,120.7,337.4,120.7z"/>
	<path class="st0" d="M330.3,150.4l-0.1-2.4l-2.5,1.1c-0.1,0.9-0.1,1.8,0,2.6c0,0.1,0,0.3,0.1,0.4c0.2,0.2,0.4,0.3,0.6,0.4
		c1.1,0.4,2,1.2,2.5,2.2c0.7,1.4,0.1,3.2-1.3,3.9c-0.1,0.1-0.2,0.1-0.3,0.1c-1.6,0.5-3.3-0.4-3.7-2c0-0.4,0-1-0.6-1
		c-0.8-0.1-1.2,1.1-1.1,1.7c0.1,3.6,3.5,4.7,4.9,4.8c1,0.1,1.9-0.1,2.8-0.6c1.4-0.8,2.3-2.1,2.6-3.7
		C335,153.2,330,150.7,330.3,150.4z"/>
	<path class="st10" d="M332.4,149.2l10.6-25.6c0.7-1.8-0.1-3.8-1.9-4.6c-0.4-0.2-0.9-0.3-1.3-0.3h-21.2c-1.9,0-3.5,1.6-3.5,3.5
		c0,0.5,0.1,0.9,0.3,1.4l10.6,25.6c0.7,1.8,2.8,2.6,4.6,1.9C331.3,150.8,332,150.1,332.4,149.2z"/>
	<path class="st2" d="M319.6,120.6l-2.8,2.7c0,0.1,0,0.2,0,0.3l0.9,2.2l5.2-5.2H319.6z"/>
	<polygon class="st2" points="329.9,120.6 326.4,120.6 318.8,128.3 319.8,130.7 	"/>
	<polygon class="st2" points="337.2,133.8 339.6,128 324.8,142.8 325.8,145.2 	"/>
	<path class="st2" d="M334.8,139.7l-7.9,7.9l0.3,0.6c0.2,0.6,0.7,1,1.3,1.2l3.9-3.9L334.8,139.7z"/>
	<polygon class="st2" points="336.7,120.6 333.3,120.6 320.8,133.1 321.8,135.5 	"/>
	<path class="st2" d="M341.5,122.6c-0.1-0.9-0.7-1.6-1.6-1.8l-17.2,17.1l1,2.4L341.5,122.6z"/>
	<path class="st0" d="M602.5,310.5h17.8c1.5,0,2.6,1.2,2.6,2.6v0v8.1l0,0h-23.1l0,0v-8.1C599.9,311.7,601.1,310.5,602.5,310.5
		C602.5,310.5,602.5,310.5,602.5,310.5z"/>
	<path class="st0" d="M559.5,318.6h-3.8V296c0-1,0.2-2,0.5-2.9l1.9-5.9c0-0.1,0.1-0.1,0.2-0.1c0,0,0,0,0.1,0.1l2.2,4L560,293
		c-0.3,1-0.5,2-0.5,3V318.6z"/>
	<path class="st2" d="M652.9,322.7c-1.1-2.6-3.4-4.5-6.2-5l-94.8,0v-15.8c0-2.1-1.7-3.8-3.8-3.8c0,0,0,0,0,0h-45.8
		c-1.7,0-3.1,1.1-3.7,2.7l-1.4,4.3h5.1c1.2,0,2.3,0.5,3.1,1.4c0.7,0.9,1,2.1,0.8,3.2l-4.9,23.2c-0.4,1.8-2,3.1-3.9,3.1h-9.7
		c-0.1,1.5,0,3,0.3,4.4l0.5,2.3l-25.1,4.9c-0.4,0.1-0.7,0.4-0.8,0.8l-2.4,6.3c-0.2,0.3-0.3,0.6-0.3,0.9l0,0l0,0
		c-0.5,2.1-0.1,5.6,1.1,5.6h26.9l-1.1,1.4l-1.5,4.7h170.7C656,352.1,655.6,329.1,652.9,322.7z M534.6,308.2l-2.5,22.9
		c0,0.3-0.1,0.6-0.1,0.9c-1,4.7-5.2,7.9-10,7.9h-11.3c-1.9,0-3.5-1.6-3.5-3.5c0-0.2,0-0.5,0.1-0.7l5.3-27.5c0.4-1.8,1.9-3.1,3.8-3.1
		h15.4c1.6,0,2.9,1.3,2.9,2.9C534.7,308.1,534.7,308.2,534.6,308.2L534.6,308.2z"/>
	<path class="st1" d="M576.6,378.8l-72.7,1c-0.5,0-1.3-1.4-1.3-1.9v-8.1c0-0.5,0.4-0.9,0.9-0.9h73.1c0.5,0,0.9,0.4,0.9,0.8
		c0,0,0,0,0,0v8.1C577.5,378.4,577.1,378.8,576.6,378.8C576.6,378.8,576.6,378.8,576.6,378.8z"/>
	<path class="st2" d="M534.6,308.2l-2.5,22.9c0,0.3-0.1,0.6-0.1,0.9c-1,4.7-5.2,8-10,7.9h-11.2c-1.9,0-3.5-1.6-3.5-3.5
		c0-0.2,0-0.5,0.1-0.7l5.3-27.5c0.4-1.8,1.9-3.1,3.8-3.1h15.4c1.6,0,2.9,1.3,2.9,2.9C534.7,308.1,534.7,308.2,534.6,308.2
		L534.6,308.2z"/>
	<g>
		<defs>
			<path id="SVGID_1_" d="M534.6,308.2l-2.5,22.9c0,0.3-0.1,0.6-0.1,0.9c-1,4.7-5.2,8-10,7.9h-11.2c-1.9,0-3.5-1.6-3.5-3.5
				c0-0.2,0-0.5,0.1-0.7l5.3-27.5c0.4-1.8,1.9-3.1,3.8-3.1h15.4c1.6,0,2.9,1.3,2.9,2.9C534.7,308.1,534.7,308.2,534.6,308.2
				L534.6,308.2z"/>
		</defs>
		<clipPath id="SVGID_2_">
			<use xlink:href="#SVGID_1_"  style="overflow:visible;"/>
		</clipPath>
		<g class="st14">
			<path class="st2" d="M656,369.4c0.1-0.6,0-1.2-0.2-1.8H485.5c-0.2,0.6-0.3,1.2-0.2,1.8H656z"/>
			<path class="st2" d="M498.6,300.7l-10.2,31.9c-0.8,2.5-1,5.3-0.4,7.9l4.4,20.4h59.6v-58.9c0-2.1-1.7-3.8-3.8-3.8l0,0h-45.8
				C500.6,298,499.1,299.1,498.6,300.7z"/>
		</g>
	</g>
	<path class="st1" d="M510.7,339.8c-1.9,0-3.5-1.6-3.5-3.5c0-0.2,0-0.5,0.1-0.7l5.3-27.5c0.4-1.8,1.9-3.1,3.8-3.1h15.4
		c0.8,0,1.6,0.4,2.2,1c0.5,0.6,0.8,1.4,0.7,2.2l-2.6,22.8c0,0.3-0.1,0.6-0.1,0.9c-1,4.7-5.2,7.9-10,7.9L510.7,339.8z"/>
	<path class="st1" d="M487.7,336c0.1-1.1,0.3-2.2,0.7-3.3l8.9-27.6h5.1c1.2,0,2.3,0.5,3.1,1.4c0.7,0.9,1,2.1,0.8,3.2l-4.9,23.2
		c-0.4,1.8-2,3.1-3.9,3.1H487.7z"/>
	<path class="st0" d="M656.1,371.9H485.4c-1.3,0-1.3-4.7,0-4.7h170.6C657.4,367.2,657.4,371.9,656.1,371.9z"/>
	<path class="st0" d="M552.1,318.9c0,0,0,0.1,0,0.3v0.7c0,0.7,0,1.6-0.1,2.8c-0.1,2.5-0.2,6.1-0.3,10.5s-0.3,9.7-0.5,15.5
		c-0.1,1.5-0.1,3-0.2,4.5c0,1.6-0.3,3.2-1,4.6c-0.9,1.5-2.3,2.6-3.9,3c-1.6,0.4-3.3,0.6-5,0.6l-34.5-0.6l-10.5-0.3l-2.8-0.1h-0.7
		c-0.1,0-0.2,0-0.2,0c0.1,0,0.2,0,0.2,0h3.6l10.5,0.1l34.5,0.5c1.6,0,3.3-0.1,4.9-0.6c1.5-0.4,2.8-1.3,3.6-2.7c0.7-1.4,1-2.9,1-4.4
		c0.1-1.5,0.1-3,0.2-4.5c0.2-5.8,0.5-11.1,0.7-15.5s0.4-7.9,0.5-10.5c0.1-1.2,0.1-2.1,0.2-2.8c0-0.3,0-0.5,0.1-0.7
		C552,319.2,552,319,552.1,318.9z"/>
	<path class="st0" d="M503.4,361c-0.2,0-0.3-5-0.3-11.2s0.1-11.2,0.3-11.2s0.3,5,0.3,11.2S503.6,361,503.4,361z"/>
	<path class="st0" d="M512.4,298.2c0,0.5-0.1,1.1-0.2,1.6c-0.2,1-0.4,2.5-0.7,4.4c-0.7,3.7-1.6,8.8-2.9,14.3s-2.5,10.6-3.5,14.2
		c-0.5,1.8-0.9,3.3-1.2,4.3c-0.1,0.5-0.3,1-0.5,1.5c0.1-0.5,0.2-1.1,0.3-1.6c0.3-1.1,0.6-2.5,1-4.3c0.9-3.6,2.1-8.6,3.3-14.2
		s2.3-10.6,3-14.3l0.9-4.3C512,299.3,512.2,298.7,512.4,298.2z"/>
	<path class="st2" d="M532.1,348.9c0.3-0.1,0.6-0.2,0.9-0.4c0.3-0.2,0.5-0.6,0.6-0.9c0.1-0.5,0.1-1-0.2-1.4
		c-0.3-0.5-0.9-0.8-1.5-0.8h-2.3h-5.2c-0.8,0-1.5,0.6-1.5,1.4c-0.1,0.7,0.3,1.5,1,1.7c0.2,0.1,0.3,0.1,0.5,0.1h1.7h2
		c1.2,0,2.2,0,2.9,0.1c0.4,0,0.7,0,1,0.1c-0.3,0.1-0.7,0.1-1,0.1c-0.7,0-1.7,0.1-2.9,0.1h-2h-1.6c-0.2,0-0.4,0-0.7-0.1
		c-0.9-0.3-1.5-1.3-1.4-2.2c0-1.1,0.9-1.9,2-1.9h5.2h2.3c0.7,0,1.4,0.4,1.8,1c0.1,0.3,0.2,0.6,0.2,0.9c0,0.3,0,0.5-0.1,0.8
		c-0.1,0.4-0.4,0.8-0.8,1c-0.2,0.1-0.5,0.2-0.8,0.2C532.2,348.9,532.1,348.9,532.1,348.9z"/>
	<path class="st0" d="M644.9,324.3c0,0.1-7,0.3-15.6,0.3s-15.6-0.1-15.6-0.3s7-0.3,15.6-0.3S644.9,324.2,644.9,324.3z"/>
	<path class="st0" d="M644.9,327.4c0,0.1-7,0.3-15.6,0.3s-15.6-0.1-15.6-0.3s7-0.3,15.6-0.3S644.9,327.3,644.9,327.4z"/>
	<path class="st0" d="M644.9,330.5c0,0.1-7,0.3-15.6,0.3s-15.6-0.1-15.6-0.3s7-0.3,15.6-0.3S644.9,330.4,644.9,330.5z"/>
	<path class="st0" d="M644.9,333.6c0,0.1-7,0.3-15.6,0.3s-15.6-0.1-15.6-0.3s7-0.3,15.6-0.3S644.9,333.5,644.9,333.6z"/>
	<path class="st0" d="M644.9,336.7c0,0.1-7,0.3-15.6,0.3s-15.6-0.1-15.6-0.3s7-0.3,15.6-0.3S644.9,336.6,644.9,336.7z"/>
	<path class="st0" d="M644.9,339.8c0,0.1-7,0.3-15.6,0.3s-15.6-0.1-15.6-0.3s7-0.3,15.6-0.3S644.9,339.7,644.9,339.8z"/>
	<path class="st0" d="M644.9,342.9c0,0.1-7,0.3-15.6,0.3s-15.6-0.1-15.6-0.3s7-0.3,15.6-0.3S644.9,342.8,644.9,342.9z"/>
	<path class="st0" d="M468,416.6c-9.4,0-17.2-9-17.2-18.4S459,381,468.3,381l150.6-6.8c7.8-0.4,15.2,3.7,18.9,10.5
		c2.2,4.3,2.8,9.2,1.7,14c-4,18.2-19.1,18-25,17.6S468,416.6,468,416.6z"/>
	<circle class="st1" cx="468" cy="398.1" r="14.1"/>
	<circle class="st1" cx="618" cy="395.2" r="18.2"/>
	<path class="st1" d="M620,377.6l-0.4,0.1l-1.2,0.1l-4.4,0.4c-3.8,0.4-9.4,0.9-16.3,1.4c-13.8,1.1-32.8,2.4-53.8,3.4
		s-40.2,1.3-54,1.4c-6.9,0-12.5,0-16.4,0l-4.4-0.1H468c-0.1,0-0.3,0-0.4,0h0.4h1.2h4.4l16.4-0.2c13.8-0.2,32.9-0.6,53.9-1.5
		s40.1-2.2,53.8-3.2l16.3-1.3l4.4-0.4l1.2-0.1C619.8,377.7,619.9,377.7,620,377.6z"/>
	<path class="st1" d="M614.3,411.7c0,0.1-32.8,0.3-73.2,0.3s-73.2-0.1-73.2-0.3s32.7-0.3,73.2-0.3S614.3,411.6,614.3,411.7z"/>
	<path class="st2" d="M493.1,360.5c-0.4-1.2-0.7-2.3-1-3.5c-0.6-2.2-1.5-5.2-2.4-8.6c-0.8-2.9-1.4-5.8-1.9-8.7
		c-0.1-0.9-0.2-1.8-0.2-2.7c0-0.3,0-0.7,0.1-1c0.1,0,0,1.4,0.4,3.6s1.1,5.3,2,8.6s1.7,6.4,2.3,8.6c0.3,1.1,0.5,2,0.6,2.6
		C493.1,359.8,493.1,360.2,493.1,360.5z"/>
	<path class="st5" d="M608,406.5c-0.4-0.2-0.7-0.4-1-0.7c-0.9-0.7-1.7-1.5-2.3-2.5c-1-1.4-1.7-2.9-2.2-4.6
		c-1.2-4.1-0.3-8.5,2.3-11.8c1-1.4,2.3-2.5,3.7-3.4c1-0.6,2-1.1,3.1-1.4c0.4-0.1,0.8-0.2,1.2-0.2c-1.4,0.5-2.8,1.2-4.1,2
		c-1.4,0.9-2.6,2.1-3.6,3.4c-2.5,3.3-3.3,7.5-2.2,11.4c0.4,1.6,1.1,3.1,2,4.5C605.8,404.4,606.8,405.5,608,406.5z"/>
	<path class="st12" d="M528.9,321c-2.5,2.1-5.1,4.1-7.8,6c-2.6,2-5.3,3.8-8.1,5.5c2.5-2.1,5.1-4.1,7.8-6
		C523.4,324.5,526.1,322.7,528.9,321z"/>
	<path class="st12" d="M530.1,316.7c-2.2,1.8-4.4,3.5-6.8,5.1c-2.3,1.7-4.6,3.2-7.1,4.6c2.2-1.8,4.4-3.5,6.8-5.1
		C525.3,319.7,527.7,318.1,530.1,316.7z"/>
	<path class="st12" d="M500.8,323.3c-1,1-2.2,2-3.5,2.7c-1.2,0.9-2.4,1.7-3.8,2.3c1-1,2.2-1.9,3.5-2.7
		C498.2,324.7,499.4,323.9,500.8,323.3z"/>
	<path class="st12" d="M502.8,319.3c-2.5,2.4-5.3,4.5-8.2,6.4C497.1,323.3,499.9,321.1,502.8,319.3z"/>
	<path class="st2" d="M534.2,343.6c-3.7,0.3-7.5,0.3-11.2,0C526.8,343.3,530.5,343.3,534.2,343.6z"/>
	<path class="st5" d="M465.2,410c-0.4,0-0.8-0.1-1.2-0.3c-1.1-0.3-2.1-0.9-3.1-1.5c-1.4-1-2.6-2.2-3.5-3.6c-2.4-3.6-2.7-8.1-0.9-12
		c0.7-1.5,1.7-2.9,3-4.1c0.8-0.8,1.8-1.4,2.8-1.9c0.4-0.2,0.8-0.3,1.2-0.4c-1.4,0.7-2.6,1.6-3.8,2.6c-1.2,1.1-2.1,2.5-2.8,4
		c-1.8,3.7-1.5,8.1,0.8,11.5c0.9,1.4,2,2.6,3.4,3.6C462.4,408.8,463.7,409.5,465.2,410z"/>
	<path class="st12" d="M486.5,354.5c0,0.1-5.4,0.3-12.1,0.3s-12.1-0.1-12.1-0.3s5.4-0.3,12.1-0.3S486.5,354.4,486.5,354.5z"/>
	<path class="st2" d="M377.3,58.2l-9.1-19.6c-2.8-6.1-10-8.7-16.1-5.9c0,0,0,0,0,0l0,0c-6.1,2.8-8.7,10-5.9,16.1c0,0,0,0,0,0
		l9.1,19.6c0.2,0.4,0.6,0.5,1,0.4c0,0,0,0,0,0l20.6-9.6C377.3,59,377.5,58.6,377.3,58.2z"/>
</g>
<g id="freepik--Fence--inject-92">
	<rect x="22.5" y="321.7" class="st9" width="5.1" height="94.5"/>
	<path class="st2" d="M30.3,318.5c0,2.9-2.3,5.2-5.2,5.2c-2.9,0-5.2-2.3-5.2-5.2c0-2.9,2.3-5.2,5.2-5.2h0
		C28,313.3,30.3,315.6,30.3,318.5z"/>
	<rect x="124.7" y="321.7" class="st9" width="5.1" height="94.5"/>
	<path class="st2" d="M132.4,318.5c0,2.9-2.3,5.2-5.2,5.2c-2.9,0-5.2-2.3-5.2-5.2c0-2.9,2.3-5.2,5.2-5.2h0
		C130.1,313.3,132.4,315.6,132.4,318.5z"/>
	<rect x="7.9" y="330.8" class="st2" width="131.7" height="23.6"/>
	<polygon class="st15" points="22.8,330.8 22.5,331.2 9,354.4 7.9,354.4 7.9,330.8 	"/>
	<polygon class="st15" points="56.1,330.8 42.3,354.4 24.3,354.4 29.8,345 38.1,330.8 	"/>
	<polygon class="st15" points="89.3,330.8 75.6,354.4 57.6,354.4 71.3,330.8 	"/>
	<polygon class="st15" points="122.6,330.8 108.8,354.4 90.8,354.4 104.6,330.8 	"/>
	<polygon class="st15" points="139.6,330.8 139.6,354.4 124.1,354.4 137.9,330.8 	"/>
	<rect x="7.9" y="367.2" class="st2" width="131.7" height="23.6"/>
	<polygon class="st15" points="22.8,367.2 22.5,367.6 9,390.8 7.9,390.8 7.9,367.2 	"/>
	<polygon class="st15" points="56.1,367.2 42.3,390.8 24.3,390.8 29.8,381.4 38.1,367.2 	"/>
	<polygon class="st15" points="89.3,367.2 75.6,390.8 57.6,390.8 71.3,367.2 	"/>
	<polygon class="st15" points="122.6,367.2 108.8,390.8 90.8,390.8 104.6,367.2 	"/>
	<polygon class="st15" points="139.6,367.2 139.6,390.8 124.1,390.8 137.9,367.2 	"/>
	<path class="st0" d="M139.6,354.4c0,0,0-0.1,0-0.4s0-0.7,0-1.2c0-1,0-2.6,0-4.6c0-4-0.1-9.9-0.1-17.4l0.1,0.1L7.9,331.1l0,0
		l0.3-0.3v23.6l-0.3-0.3l93.8,0.1l27.8,0.1h7.5h1.9L139.6,354.4l-0.6,0H137h-7.4l-27.7,0.1l-93.9,0.1H7.6v-24h0.3l131.7,0.1h0.1v0.1
		c0,7.5-0.1,13.4-0.1,17.5c0,2,0,3.5,0,4.5c0,0.5,0,0.9,0,1.2S139.6,354.4,139.6,354.4z"/>
	<path class="st0" d="M139.6,390.8c0,0,0-0.1,0-0.4s0-0.7,0-1.2c0-1,0-2.6,0-4.6c0-4-0.1-9.9-0.1-17.4l0.1,0.1L7.9,367.5l0,0
		l0.3-0.3v23.6l-0.3-0.3l93.8,0.1l27.8,0.1h7.5h1.9C139.4,390.7,139.6,390.7,139.6,390.8l-0.6-0.1h-1.9h-7.4l-27.7,0.1l-93.9,0.1
		H7.7V367h0.3l131.7,0.1h0.1v0.1c0,7.5-0.1,13.5-0.1,17.5c0,2,0,3.5,0,4.5c0,0.5,0,0.9,0,1.2S139.6,390.8,139.6,390.8z"/>
</g>
<g id="freepik--Floor--inject-92">
	<path class="st0" d="M649.6,416.6c0,0.1-145.4,0.3-324.8,0.3S0,416.7,0,416.6s145.4-0.3,324.8-0.3S649.6,416.4,649.6,416.6z"/>
</g>
</svg>
